# xmcd CD database file
#
# Track frame offsets:
#	150
#	14387
#	34460
#	57468
#	81456
#	102002
#	112268
#	128413
#	148960
#	161826
#	181541
#	206578
#	226984
#	241964
#	260156
#	276283
#
# Disc length: 3946 seconds
#
# Revision: 0
# Processed by: cddbd v1.5.2PL0 Copyright (c) Steve Scherf et al.
# Submitted via: CDex 1.51
#
DISCID=ec0f6810
DTITLE=Body Bag Syndikate - Infection
DYEAR=2017
DGENRE=Horrorcore
TTITLE0=Infection
TTITLE1=Murder Sentences (feat. DJ Kosmo)
TTITLE2=K.O.L.D. 2
TTITLE3=I.F.Y.B. (feat. Big Hoodoo)
TTITLE4=Starvin' Artist
TTITLE5=Enemies
TTITLE6=Hate the Crook (feat. Slaine)
TTITLE7=Get DEAD
TTITLE8=Normal Norman (feat. V. Mortox) 
TTITLE9=Underground Roughnecks (feat. DJ Gnarly Knucklez)
TTITLE10=Love Kills
TTITLE11=Hate (feat. G-Mo Skee)
TTITLE12=Dead Wrong
TTITLE13=Louis XVI
TTITLE14=F U
TTITLE15=Moment of Silence
EXTD=YEAR: 2017
EXTT0=
EXTT1=
EXTT2=
EXTT3=
EXTT4=
EXTT5=
EXTT6=
EXTT7=
EXTT8=
EXTT9=
EXTT10=
EXTT11=
EXTT12=
EXTT13=
EXTT14=
EXTT15=
PLAYORDER=
